<mxfile host="app.diagrams.net" modified="2023-11-25T16:11:11.175Z" agent="Mozilla/5.0 (Windows NT 10.0; Win64; x64) AppleWebKit/537.36 (KHTML, like Gecko) Chrome/119.0.0.0 Safari/537.36" etag="9L96JRvYQ1-mmWUAi2Fs" version="22.1.4" type="google">
  <diagram id="kgpKYQtTHZ0yAKxKKP6v" name="Page-1">
    <mxGraphModel grid="1" page="1" gridSize="10" guides="1" tooltips="1" connect="1" arrows="1" fold="1" pageScale="1" pageWidth="850" pageHeight="1100" math="0" shadow="0">
      <root>
        <mxCell id="0" />
        <mxCell id="1" parent="0" />
        <mxCell id="QUboDrlgzVNw7Nmbla5Z-4" value="SamWise Layered Architecture" style="swimlane;childLayout=stackLayout;resizeParent=1;resizeParentMax=0;horizontal=1;startSize=20;horizontalStack=0;html=1;" vertex="1" parent="1">
          <mxGeometry x="190" y="40" width="590" height="330" as="geometry" />
        </mxCell>
        <mxCell id="QUboDrlgzVNw7Nmbla5Z-5" value="Presentation Layer" style="swimlane;startSize=20;horizontal=0;html=1;" vertex="1" parent="QUboDrlgzVNw7Nmbla5Z-4">
          <mxGeometry y="20" width="590" height="150" as="geometry" />
        </mxCell>
        <mxCell id="QUboDrlgzVNw7Nmbla5Z-9" value="Service UI" style="html=1;outlineConnect=0;whiteSpace=wrap;fillColor=#99ffff;shape=mxgraph.archimate3.application;appType=comp;archiType=square;" vertex="1" parent="QUboDrlgzVNw7Nmbla5Z-5">
          <mxGeometry x="50" y="40" width="110" height="60" as="geometry" />
        </mxCell>
        <mxCell id="QUboDrlgzVNw7Nmbla5Z-19" value="Payment UI" style="html=1;outlineConnect=0;whiteSpace=wrap;fillColor=#99ffff;shape=mxgraph.archimate3.application;appType=comp;archiType=square;" vertex="1" parent="QUboDrlgzVNw7Nmbla5Z-5">
          <mxGeometry x="180" y="40" width="110" height="60" as="geometry" />
        </mxCell>
        <mxCell id="QUboDrlgzVNw7Nmbla5Z-20" value="User UI" style="html=1;outlineConnect=0;whiteSpace=wrap;fillColor=#99ffff;shape=mxgraph.archimate3.application;appType=comp;archiType=square;" vertex="1" parent="QUboDrlgzVNw7Nmbla5Z-5">
          <mxGeometry x="310" y="40" width="110" height="60" as="geometry" />
        </mxCell>
        <mxCell id="QUboDrlgzVNw7Nmbla5Z-21" value="Schedule UI" style="html=1;outlineConnect=0;whiteSpace=wrap;fillColor=#99ffff;shape=mxgraph.archimate3.application;appType=comp;archiType=square;" vertex="1" parent="QUboDrlgzVNw7Nmbla5Z-5">
          <mxGeometry x="440" y="40" width="110" height="60" as="geometry" />
        </mxCell>
        <mxCell id="QUboDrlgzVNw7Nmbla5Z-6" value="Business Logic Layer" style="swimlane;startSize=20;horizontal=0;html=1;" vertex="1" parent="QUboDrlgzVNw7Nmbla5Z-4">
          <mxGeometry y="170" width="590" height="160" as="geometry" />
        </mxCell>
        <mxCell id="QUboDrlgzVNw7Nmbla5Z-22" value="Route Handlers" style="html=1;outlineConnect=0;whiteSpace=wrap;fillColor=#ffff99;shape=mxgraph.archimate3.application;appType=interface;archiType=square;" vertex="1" parent="QUboDrlgzVNw7Nmbla5Z-6">
          <mxGeometry x="50" y="42.5" width="140" height="67.5" as="geometry" />
        </mxCell>
        <mxCell id="QUboDrlgzVNw7Nmbla5Z-23" value="Database Interaction" style="html=1;outlineConnect=0;whiteSpace=wrap;fillColor=#ffff99;shape=mxgraph.archimate3.application;appType=interface;archiType=square;" vertex="1" parent="QUboDrlgzVNw7Nmbla5Z-6">
          <mxGeometry x="230" y="42.5" width="140" height="67.5" as="geometry" />
        </mxCell>
        <mxCell id="QUboDrlgzVNw7Nmbla5Z-29" value="Express.js Server" style="html=1;outlineConnect=0;whiteSpace=wrap;fillColor=#ffff99;shape=mxgraph.archimate3.application;appType=interface;archiType=square;" vertex="1" parent="QUboDrlgzVNw7Nmbla5Z-6">
          <mxGeometry x="410" y="42.5" width="150" height="67.5" as="geometry" />
        </mxCell>
        <mxCell id="QUboDrlgzVNw7Nmbla5Z-24" value="Data Layer" style="swimlane;startSize=20;horizontal=0;html=1;" vertex="1" parent="1">
          <mxGeometry x="190" y="370" width="590" height="160" as="geometry" />
        </mxCell>
        <mxCell id="QUboDrlgzVNw7Nmbla5Z-28" value="Database" style="strokeWidth=2;html=1;shape=mxgraph.flowchart.database;whiteSpace=wrap;" vertex="1" parent="QUboDrlgzVNw7Nmbla5Z-24">
          <mxGeometry x="225" y="50" width="150" height="60" as="geometry" />
        </mxCell>
      </root>
    </mxGraphModel>
  </diagram>
</mxfile>
